<svg width="75" height="75" viewBox="0 0 75 75" fill="none" xmlns="http://www.w3.org/2000/svg">
<path d="M35.1562 4.6875H39.8438V16.4062H35.1562V4.6875Z" fill="white"/>
<path d="M50.8289 20.8594L59.0461 12.6398L62.3602 15.9562L54.143 24.1734L50.8289 20.8594Z" fill="white"/>
<path d="M58.5938 35.1562H70.3125V39.8438H58.5938V35.1562Z" fill="white"/>
<path d="M50.8289 54.1406L54.143 50.8265L62.3602 59.0437L59.0461 62.3601L50.8289 54.1406Z" fill="white"/>
<path d="M35.1562 58.5938H39.8438V70.3125H35.1562V58.5938Z" fill="white"/>
<path d="M12.6422 59.0437L20.8593 50.8265L24.1734 54.1429L15.9562 62.3601L12.6422 59.0437Z" fill="white"/>
<path d="M4.6875 35.1562H16.4062V39.8438H4.6875V35.1562Z" fill="white"/>
<path d="M12.6422 15.9562L15.9562 12.6398L24.1734 20.8594L20.8593 24.1734L12.6422 15.9562Z" fill="white"/>
<path d="M37.5 23.4375C34.7187 23.4375 31.9999 24.2623 29.6873 25.8075C27.3747 27.3527 25.5723 29.5489 24.508 32.1185C23.4436 34.6881 23.1651 37.5156 23.7077 40.2435C24.2503 42.9713 25.5896 45.477 27.5563 47.4437C29.523 49.4104 32.0287 50.7497 34.7565 51.2923C37.4844 51.8349 40.3119 51.5564 42.8815 50.4921C45.4511 49.4277 47.6473 47.6253 49.1925 45.3127C50.7378 43.0001 51.5625 40.2813 51.5625 37.5C51.5625 33.7704 50.0809 30.1935 47.4437 27.5563C44.8065 24.9191 41.2296 23.4375 37.5 23.4375Z" fill="white"/>
</svg>
